<svg id="Capa_1" data-name="Capa 1" xmlns="http://www.w3.org/2000/svg" viewBox="0 0 354.41 424.65"><defs><style>.cls-1{fill:lime;}</style></defs><path class="cls-1" d="M205.89,228.62c-5.89,0-11.19,4.53-12.6,10.78v21.23a13,13,0,0,0,12.6,10.31c9.79,0,15.4-7.78,15.4-21.34C221.25,244.68,220.14,228.62,205.89,228.62Z" transform="translate(-0.03)"/><polygon class="cls-1" points="82.64 238.9 100.17 238.9 91.12 207.46 82.64 238.9"/><path class="cls-1" d="M37,0,0,54.27V396.55H0v28.1H298.52v-.38l.92.09,55-42.07V0Zm78.64,297.56-9.36-31.14H76.75l-8.64,31.14H32.28L71.5,169.25h41.17l39.79,128.31Zm127-11a41.52,41.52,0,0,1-30.25,13c-9.76,0-17.94-3.11-24.07-9.07l-.62,7.09H158.39V162.78h34.4V208c6.1-4.87,14.18-7.48,23.5-7.48a36.65,36.65,0,0,1,26.6,10.94c8.66,8.72,13.37,21.89,13.27,37.09,0,15.57-4.7,28.73-13.58,38Zm81.85,80.89-25.91,19.82v-333h-262L52.89,30H324.43V367.45Z" transform="translate(-0.03)"/></svg>