<svg id="Capa_1" data-name="Capa 1" xmlns="http://www.w3.org/2000/svg" viewBox="0 0 354.43 424.65"><defs><style>.cls-1{fill:#fff;}</style></defs><path class="cls-1" d="M241,228.62c-5.89,0-11.19,4.53-12.6,10.78l0,21.23A13,13,0,0,0,241,270.94c9.79,0,15.4-7.78,15.4-21.34C256.36,244.68,255.25,228.62,241,228.62Z" transform="translate(-35.11)"/><polygon class="cls-1" points="82.67 238.9 100.2 238.9 91.15 207.46 82.67 238.9"/><path class="cls-1" d="M72.06,0,35.14,54.27l0,342.28h0v28.1H333.63v-.38l.92.09,55-42.07V0ZM150.7,297.56l-9.36-31.14H111.86l-8.64,31.14H67.39l39.22-128.31h41.17l39.79,128.31Zm127-11a41.49,41.49,0,0,1-30.25,13c-9.76,0-17.94-3.11-24.07-9.07l-.62,7.09H193.5l0-134.8H227.9V208c6.1-4.87,14.18-7.48,23.5-7.48A36.67,36.67,0,0,1,278,211.46c8.66,8.72,13.37,21.89,13.27,37.09C291.26,264.12,286.57,277.28,277.69,286.58Zm81.85,80.89-25.91,19.82v-333h-262L88,30H359.54V367.47Z" transform="translate(-35.11)"/></svg>