<?xml version="1.0" encoding="utf-8"?>
<!-- Generator: Adobe Illustrator 22.1.0, SVG Export Plug-In . SVG Version: 6.00 Build 0)  -->
<svg version="1.1" id="Capa_1" xmlns="http://www.w3.org/2000/svg" xmlns:xlink="http://www.w3.org/1999/xlink" x="0px" y="0px"
	 viewBox="0 0 446.3 446.3" style="enable-background:new 0 0 446.3 446.3;" xml:space="preserve">
<style type="text/css">
	.st0{fill:#FFFFFF;}
</style>
<g>
	<g id="search">
		<path class="st0" d="M318.8,280.5h-20.4l-7.6-7.6c25.5-28.1,40.8-66.3,40.8-107.1C331.5,73.9,257.5,0,165.8,0S0,73.9,0,165.8
			s73.9,165.8,165.8,165.8c40.8,0,79.1-15.3,107.1-40.8l7.6,7.6v20.4L408,446.3l38.3-38.3L318.8,280.5z M165.8,280.5
			C102,280.5,51,229.5,51,165.8S102,51,165.8,51s114.8,51,114.8,114.8S229.5,280.5,165.8,280.5z"/>
	</g>
</g>
</svg>
